<mxfile host="app.diagrams.net" agent="Mozilla/5.0 (Windows NT 10.0; Win64; x64) AppleWebKit/537.36 (KHTML, like Gecko) Chrome/132.0.0.0 Safari/537.36" version="26.0.11">
  <diagram name="Page-1" id="j8d1dGkbyTNjyM_4-g2h">
    <mxGraphModel dx="1290" dy="653" grid="1" gridSize="10" guides="1" tooltips="1" connect="1" arrows="1" fold="1" page="1" pageScale="1" pageWidth="850" pageHeight="1100" math="0" shadow="0">
      <root>
        <mxCell id="0" />
        <mxCell id="1" parent="0" />
        <mxCell id="wzam9ScB9WNOYTemioa7-1" value="SDN/ Gov Data" style="ellipse;shape=cloud;whiteSpace=wrap;html=1;" vertex="1" parent="1">
          <mxGeometry x="360" y="40" width="130" height="80" as="geometry" />
        </mxCell>
        <mxCell id="wzam9ScB9WNOYTemioa7-5" style="edgeStyle=orthogonalEdgeStyle;rounded=0;orthogonalLoop=1;jettySize=auto;html=1;exitX=1;exitY=0.5;exitDx=0;exitDy=0;" edge="1" parent="1" source="wzam9ScB9WNOYTemioa7-2" target="wzam9ScB9WNOYTemioa7-3">
          <mxGeometry relative="1" as="geometry" />
        </mxCell>
        <mxCell id="wzam9ScB9WNOYTemioa7-2" value="Payment Galaxy" style="rounded=0;whiteSpace=wrap;html=1;" vertex="1" parent="1">
          <mxGeometry x="120" y="180" width="120" height="60" as="geometry" />
        </mxCell>
        <mxCell id="wzam9ScB9WNOYTemioa7-8" style="edgeStyle=orthogonalEdgeStyle;rounded=0;orthogonalLoop=1;jettySize=auto;html=1;entryX=0;entryY=0.5;entryDx=0;entryDy=0;" edge="1" parent="1" source="wzam9ScB9WNOYTemioa7-3" target="wzam9ScB9WNOYTemioa7-4">
          <mxGeometry relative="1" as="geometry" />
        </mxCell>
        <mxCell id="wzam9ScB9WNOYTemioa7-14" style="edgeStyle=orthogonalEdgeStyle;rounded=0;orthogonalLoop=1;jettySize=auto;html=1;exitX=0.25;exitY=1;exitDx=0;exitDy=0;entryX=1;entryY=0.5;entryDx=0;entryDy=0;" edge="1" parent="1" source="wzam9ScB9WNOYTemioa7-3" target="wzam9ScB9WNOYTemioa7-13">
          <mxGeometry relative="1" as="geometry" />
        </mxCell>
        <mxCell id="wzam9ScB9WNOYTemioa7-3" value="Compliance Scanner" style="rounded=0;whiteSpace=wrap;html=1;" vertex="1" parent="1">
          <mxGeometry x="370" y="180" width="120" height="60" as="geometry" />
        </mxCell>
        <mxCell id="wzam9ScB9WNOYTemioa7-4" value="Review" style="rounded=0;whiteSpace=wrap;html=1;" vertex="1" parent="1">
          <mxGeometry x="590" y="180" width="120" height="60" as="geometry" />
        </mxCell>
        <mxCell id="wzam9ScB9WNOYTemioa7-6" value="Payment Transaction&lt;div&gt;&amp;nbsp;Request&lt;/div&gt;" style="text;html=1;align=center;verticalAlign=middle;resizable=0;points=[];autosize=1;strokeColor=none;fillColor=none;" vertex="1" parent="1">
          <mxGeometry x="230" y="173" width="140" height="40" as="geometry" />
        </mxCell>
        <mxCell id="wzam9ScB9WNOYTemioa7-9" value="if flagged?" style="text;html=1;align=center;verticalAlign=middle;resizable=0;points=[];autosize=1;strokeColor=none;fillColor=none;" vertex="1" parent="1">
          <mxGeometry x="500" y="183" width="80" height="30" as="geometry" />
        </mxCell>
        <mxCell id="wzam9ScB9WNOYTemioa7-10" value="MySQL DB" style="shape=cylinder3;whiteSpace=wrap;html=1;boundedLbl=1;backgroundOutline=1;size=15;" vertex="1" parent="1">
          <mxGeometry x="500" y="270" width="60" height="80" as="geometry" />
        </mxCell>
        <mxCell id="wzam9ScB9WNOYTemioa7-11" style="edgeStyle=orthogonalEdgeStyle;rounded=0;orthogonalLoop=1;jettySize=auto;html=1;exitX=0.5;exitY=1;exitDx=0;exitDy=0;entryX=0;entryY=0.5;entryDx=0;entryDy=0;entryPerimeter=0;" edge="1" parent="1" source="wzam9ScB9WNOYTemioa7-3" target="wzam9ScB9WNOYTemioa7-10">
          <mxGeometry relative="1" as="geometry" />
        </mxCell>
        <mxCell id="wzam9ScB9WNOYTemioa7-12" style="edgeStyle=orthogonalEdgeStyle;rounded=0;orthogonalLoop=1;jettySize=auto;html=1;exitX=0.55;exitY=0.95;exitDx=0;exitDy=0;exitPerimeter=0;" edge="1" parent="1" source="wzam9ScB9WNOYTemioa7-1">
          <mxGeometry relative="1" as="geometry">
            <mxPoint x="432" y="180" as="targetPoint" />
            <Array as="points">
              <mxPoint x="432" y="158" />
            </Array>
          </mxGeometry>
        </mxCell>
        <mxCell id="wzam9ScB9WNOYTemioa7-13" value="UI" style="rounded=0;whiteSpace=wrap;html=1;" vertex="1" parent="1">
          <mxGeometry x="120" y="280" width="120" height="60" as="geometry" />
        </mxCell>
        <mxCell id="wzam9ScB9WNOYTemioa7-15" value="Output after not flagged" style="text;html=1;align=center;verticalAlign=middle;resizable=0;points=[];autosize=1;strokeColor=none;fillColor=none;" vertex="1" parent="1">
          <mxGeometry x="250" y="280" width="150" height="30" as="geometry" />
        </mxCell>
      </root>
    </mxGraphModel>
  </diagram>
</mxfile>
